<svg width="1366" height="1393" viewBox="0 0 1366 1393" fill="none" xmlns="http://www.w3.org/2000/svg">
<g clip-path="url(#clip0_3_3023)">
<rect width="1366" height="1393" fill="#FAFAFA"/>
<path d="M1630.67 408.329C1655.81 477.484 1601.69 549.702 1528.25 544.976L1164.02 521.532C1153.95 520.884 1144.03 518.744 1134.59 515.183L673.005 341.14C636.91 327.53 611.581 294.722 607.55 256.358L576.937 -34.9906C576.314 -40.9261 576.212 -46.9048 576.634 -52.8581L590.854 -253.567C595.84 -323.942 669.055 -368.125 733.643 -339.736L1437.63 -30.3016C1463.12 -19.0957 1482.93 2.04681 1492.44 28.2185L1630.67 408.329Z" fill="#E8E9ED"/>
<path d="M482.903 1701.41C491.3 1775.93 419.126 1833.73 348.249 1809.25L-350.358 1567.99C-390.959 1553.97 -418.425 1516.01 -419.051 1473.06L-424.783 1080.02C-425.841 1007.5 -352.998 957.077 -285.492 983.602L376.687 1243.79C411.862 1257.61 436.512 1289.74 440.744 1327.3L482.903 1701.41Z" fill="#E8E9ED"/>
</g>
<defs>
<clipPath id="clip0_3_3023">
<rect width="1366" height="1393" fill="white"/>
</clipPath>
</defs>
</svg>
